<?xml version="1.0" encoding="UTF-8" standalone="no"?>
<!DOCTYPE svg PUBLIC "-//W3C//DTD SVG 1.1//EN" "http://www.w3.org/Graphics/SVG/1.1/DTD/svg11.dtd">
<svg width="100%" height="100%" viewBox="0 0 96 96" version="1.1" xmlns="http://www.w3.org/2000/svg" xmlns:xlink="http://www.w3.org/1999/xlink" xml:space="preserve" xmlns:serif="http://www.serif.com/" style="fill-rule:evenodd;clip-rule:evenodd;stroke-linejoin:round;stroke-miterlimit:2;">
    <g>
        <path id="path8" d="M85.451,78.454C75.206,86.005 60.357,90.034 47.572,90.034C29.646,90.034 13.507,83.403 1.298,72.376C0.339,71.509 1.198,70.327 2.349,71.002C15.526,78.668 31.817,83.28 48.646,83.28C59.996,83.28 72.482,80.932 83.962,76.059C85.696,75.323 87.147,77.195 85.451,78.454" style="fill:#f90;fill-rule:nonzero;"/>
        <path id="path10" d="M89.71,73.581C88.405,71.908 81.054,72.79 77.754,73.181C76.749,73.304 76.595,72.429 77.501,71.8C83.356,67.679 92.964,68.869 94.084,70.25C95.204,71.639 93.792,81.27 88.29,85.867C87.446,86.573 86.64,86.197 87.016,85.26C88.252,82.175 91.022,75.261 89.71,73.581" style="fill:#f90;fill-rule:nonzero;"/>
    </g>
    <g>
        <path d="M87.182,50.976C88.466,44.892 85.494,38.651 79.954,35.799C77.353,34.46 75.883,33.032 74.879,30.87C73.875,28.707 73.757,26.713 74.471,23.988C75.375,20.536 74.784,16.89 72.807,13.722C70.754,10.433 67.382,8.018 63.557,7.095C56.191,5.32 48.835,9.706 46.067,17.526C45.162,20.083 44.715,22.876 44.715,25.825C47.683,25.405 50.758,25.753 53.616,26.862C54.356,27.149 55.085,27.489 55.782,27.873C59.679,30.019 62.498,33.574 63.719,37.884C64.876,41.964 64.561,46.463 62.832,50.554C61.99,52.548 60.862,54.46 59.479,56.268C61.476,57.856 63.599,59.134 65.813,60.063C73.522,63.296 81.795,61.273 85.486,55.244C85.838,54.669 86.6,54.485 87.209,54.815C87.59,54.051 87.9,53.267 88.14,52.469C87.47,52.292 87.043,51.635 87.182,50.976ZM70.376,17.146C70.032,17.322 69.638,17.329 69.296,17.197C69.017,17.088 68.773,16.888 68.618,16.611C67.537,14.688 65.786,13.18 63.687,12.366C63.017,12.107 62.677,11.374 62.927,10.73C63.177,10.086 63.922,9.774 64.591,10.034C67.268,11.072 69.501,12.996 70.88,15.45C71.226,16.066 71,16.825 70.376,17.146ZM79.362,39.717C79.063,40.287 78.367,40.526 77.757,40.289C77.713,40.272 77.669,40.252 77.626,40.23C73.971,38.349 71.673,36.069 70.173,32.839C68.674,29.609 68.453,26.46 69.456,22.63C69.631,21.962 70.334,21.572 71.026,21.759C71.718,21.946 72.138,22.641 71.963,23.309C71.114,26.551 71.288,29.187 72.526,31.854C73.765,34.522 75.696,36.422 78.79,38.015C79.428,38.343 79.684,39.105 79.362,39.717Z" style="fill:#ab7be1;fill-rule:nonzero;"/>
        <path d="M78.79,38.014C75.696,36.422 73.765,34.522 72.526,31.854C71.288,29.186 71.114,26.551 71.963,23.309C72.138,22.64 71.718,21.946 71.027,21.759C70.334,21.571 69.631,21.961 69.456,22.63C68.453,26.46 68.674,29.609 70.173,32.838C71.673,36.069 73.971,38.348 77.626,40.23C77.669,40.252 77.713,40.272 77.757,40.289C78.367,40.525 79.063,40.287 79.363,39.716C79.684,39.105 79.428,38.343 78.79,38.014Z" style="fill:#fff;fill-rule:nonzero;"/>
        <path d="M70.88,15.45C69.501,12.996 67.268,11.072 64.591,10.034C63.922,9.774 63.177,10.086 62.927,10.73C62.677,11.374 63.017,12.107 63.687,12.366C65.786,13.18 67.537,14.688 68.618,16.611C68.773,16.888 69.017,17.088 69.296,17.197C69.638,17.329 70.031,17.322 70.376,17.146C71,16.825 71.226,16.066 70.88,15.45Z" style="fill:#fff;fill-rule:nonzero;"/>
        <path d="M87.255,54.84C87.24,54.83 87.224,54.823 87.208,54.815C86.6,54.485 85.838,54.669 85.486,55.244C81.795,61.273 73.522,63.297 65.813,60.063C63.599,59.133 61.476,57.855 59.478,56.268C60.862,54.46 61.99,52.548 62.832,50.554C64.56,46.464 64.875,41.964 63.719,37.884C62.498,33.574 59.679,30.019 55.782,27.873C55.085,27.489 54.356,27.149 53.616,26.862C50.757,25.753 47.683,25.405 44.715,25.825C44.715,22.876 45.162,20.083 46.067,17.526C48.835,9.706 56.19,5.32 63.557,7.095C67.382,8.018 70.754,10.433 72.806,13.722C74.784,16.89 75.375,20.536 74.471,23.988C73.757,26.713 73.875,28.707 74.879,30.87C75.883,33.032 77.353,34.46 79.953,35.799C85.493,38.651 88.466,44.892 87.182,50.976C87.043,51.635 87.47,52.292 88.139,52.469C88.157,52.474 88.173,52.48 88.191,52.484C88.891,52.64 89.574,52.218 89.716,51.542C91.233,44.356 87.697,36.971 81.117,33.584C79.04,32.515 77.987,31.512 77.232,29.886C76.477,28.259 76.408,26.844 76.978,24.667C78.055,20.555 77.356,16.22 75.009,12.459C72.591,8.586 68.622,5.741 64.118,4.656C59.793,3.614 55.314,4.339 51.506,6.698C47.902,8.932 45.101,12.467 43.619,16.654C42.557,19.654 42.068,22.938 42.138,26.396C42.003,26.437 41.867,26.476 41.733,26.52C37.816,27.814 34.64,30.464 32.792,33.981C31.745,35.973 30.741,36.972 29.086,37.664C27.432,38.356 25.978,38.386 23.723,37.776C19.464,36.622 15.021,37.191 11.212,39.376C7.289,41.626 4.465,45.413 3.464,49.765C2.511,53.906 3.296,58.081 5.732,61.839C8.002,65.34 11.561,68.164 15.755,69.791C15.95,69.867 16.143,69.938 16.339,70.008C24.15,72.792 33.702,72.129 43.234,68.141C49.243,65.626 54.229,62.214 57.873,58.194C60.063,59.936 62.398,61.342 64.84,62.368C65.038,62.451 65.237,62.531 65.436,62.608C74.176,65.998 83.468,63.513 87.718,56.571C88.079,55.981 87.872,55.206 87.255,54.84ZM5.989,50.373C6.839,46.677 9.237,43.461 12.569,41.549C15.777,39.709 19.514,39.228 23.09,40.196C25.913,40.961 27.961,40.897 30.161,39.977C32.36,39.057 33.792,37.664 35.102,35.17C38.289,29.105 45.859,26.536 52.712,29.193C53.34,29.437 53.96,29.726 54.552,30.053C61.189,33.708 63.664,41.907 60.436,49.548C57.58,56.309 51.089,62.091 42.16,65.827C33.231,69.563 24.358,70.21 17.174,67.65C17.001,67.588 16.835,67.522 16.66,67.458C8.892,64.446 4.404,57.26 5.989,50.373Z" style="fill:#3d2a20;fill-rule:nonzero;"/>
        <path d="M42.16,65.827C51.089,62.091 57.579,56.31 60.436,49.548C63.664,41.907 61.189,33.708 54.552,30.053C53.959,29.727 53.34,29.437 52.711,29.194C45.859,26.536 38.289,29.105 35.102,35.17C33.792,37.664 32.36,39.057 30.161,39.977C27.961,40.897 25.913,40.961 23.09,40.196C19.514,39.228 15.777,39.709 12.569,41.55C9.237,43.461 6.839,46.677 5.989,50.373C4.404,57.26 8.892,64.446 16.659,67.459C16.835,67.523 17.001,67.588 17.174,67.65C24.358,70.21 33.231,69.563 42.16,65.827ZM43.51,31.286C46.183,30.403 49.13,30.488 51.807,31.526C52.476,31.785 52.816,32.518 52.566,33.162C52.316,33.806 51.571,34.117 50.902,33.858C48.803,33.044 46.493,32.977 44.398,33.668C44.097,33.768 43.781,33.751 43.503,33.643C43.161,33.511 42.875,33.241 42.74,32.878C42.494,32.22 42.839,31.507 43.51,31.286ZM21.821,45.038C21.775,45.025 21.729,45.01 21.685,44.993C21.075,44.757 20.722,44.111 20.885,43.488C21.06,42.82 21.763,42.43 22.455,42.617C25.813,43.527 28.521,43.426 31.235,42.291C33.948,41.155 35.853,39.326 37.412,36.359C37.733,35.747 38.51,35.519 39.149,35.846C39.786,36.174 40.043,36.937 39.722,37.548C37.88,41.053 35.594,43.229 32.309,44.604C29.023,45.979 25.789,46.113 21.821,45.038Z" style="fill:#a3e175;fill-rule:nonzero;"/>
        <path d="M39.722,37.548C40.043,36.937 39.786,36.175 39.149,35.846C38.51,35.52 37.733,35.748 37.412,36.359C35.853,39.326 33.948,41.155 31.235,42.291C28.521,43.426 25.814,43.527 22.456,42.617C21.763,42.43 21.06,42.82 20.885,43.488C20.721,44.112 21.075,44.757 21.685,44.994C21.729,45.011 21.775,45.026 21.822,45.038C25.789,46.113 29.023,45.979 32.309,44.604C35.594,43.23 37.88,41.053 39.722,37.548Z" style="fill:#fff;fill-rule:nonzero;"/>
        <path d="M43.503,33.643C43.781,33.751 44.097,33.768 44.398,33.668C46.493,32.976 48.803,33.044 50.902,33.858C51.572,34.117 52.316,33.806 52.566,33.162C52.816,32.518 52.476,31.785 51.807,31.526C49.13,30.488 46.184,30.402 43.51,31.285C42.839,31.507 42.494,32.22 42.74,32.878C42.875,33.241 43.161,33.511 43.503,33.643Z" style="fill:#fff;fill-rule:nonzero;"/>
    </g>
</svg>
